<?xml version="1.0" standalone="no"?>
<!DOCTYPE svg PUBLIC "-//W3C//DTD SVG 20010904//EN"
 "http://www.w3.org/TR/2001/REC-SVG-20010904/DTD/svg10.dtd">
<svg version="1.0" xmlns="http://www.w3.org/2000/svg"
 width="1024.000000pt" height="1024.000000pt" viewBox="0 0 1024.000000 1024.000000"
 preserveAspectRatio="xMidYMid meet">

<g transform="translate(0.000000,1024.000000) scale(0.100000,-0.100000)"
fill="#008600" stroke="none">
<path d="M8490 9663 c-411 -12 -853 -44 -1205 -88 -604 -76 -911 -132 -1441
-261 -273 -66 -299 -74 -644 -184 -118 -38 -248 -78 -289 -89 -40 -11 -119
-38 -175 -59 -55 -22 -136 -52 -179 -67 -43 -15 -81 -34 -84 -43 -4 -8 10 -83
30 -166 19 -83 38 -173 42 -201 3 -27 17 -104 32 -171 l26 -121 51 20 c200 78
1002 309 1451 417 192 46 256 60 373 80 30 5 64 12 75 16 l22 6 -21 -16 c-12
-8 -24 -26 -26 -38 -4 -21 -1 -23 33 -20 20 2 39 0 42 -5 3 -5 -76 -28 -176
-52 -100 -24 -252 -63 -337 -87 -85 -23 -238 -65 -340 -93 -266 -71 -483 -134
-655 -191 -82 -27 -223 -72 -313 -100 -128 -41 -162 -55 -158 -67 4 -8 9 -27
12 -41 3 -15 22 -82 41 -149 19 -68 33 -130 31 -138 -2 -9 -30 -26 -68 -39
-75 -26 -265 -108 -395 -171 -478 -230 -543 -264 -666 -357 -101 -76 -174
-172 -167 -221 8 -54 119 -87 295 -87 162 0 678 39 811 61 68 11 126 18 129
15 7 -7 -152 -222 -332 -451 -83 -104 -178 -227 -212 -271 l-61 -82 31 -30
c18 -16 82 -58 142 -92 246 -140 345 -202 345 -215 0 -7 -28 -38 -61 -67 -146
-126 -169 -150 -169 -177 0 -50 55 -144 119 -204 33 -32 61 -60 61 -63 0 -2
-23 -32 -50 -66 -51 -63 -94 -140 -105 -189 -6 -25 -4 -26 39 -32 117 -16 276
-89 340 -156 l29 -30 -16 -73 c-9 -40 -18 -92 -21 -114 -13 -95 41 -243 122
-335 45 -50 144 -107 231 -133 66 -19 193 -20 241 -2 19 7 104 41 188 75 88
35 168 61 189 61 116 0 260 -145 478 -485 42 -66 96 -149 120 -185 112 -171
255 -392 264 -409 9 -17 4 -23 -42 -49 -28 -17 -72 -47 -95 -68 -35 -30 -43
-42 -39 -62 3 -14 -6 -67 -19 -116 -14 -58 -27 -148 -34 -246 -12 -172 -32
-327 -54 -422 -8 -35 -22 -115 -31 -178 -8 -63 -24 -152 -35 -198 -11 -45 -36
-187 -55 -315 -19 -127 -44 -278 -54 -334 -11 -56 -25 -148 -31 -205 -24 -213
-64 -443 -106 -602 l-7 -30 49 41 c27 22 195 138 374 256 397 263 513 340 565
377 57 40 678 449 750 494 104 64 368 250 372 262 4 12 -80 22 -285 33 l-114
6 34 49 c18 28 76 88 128 135 340 303 380 342 1166 1156 229 237 391 399 509
508 44 41 63 53 72 45 7 -6 13 -9 13 -7 -1 16 -400 585 -411 587 -25 5 -355
-231 -579 -413 -368 -300 -537 -470 -900 -905 -57 -69 -138 -165 -180 -215
-41 -49 -96 -117 -122 -150 -134 -171 -194 -249 -260 -337 -40 -53 -77 -97
-81 -97 -4 -1 -11 7 -14 17 -4 9 -21 40 -38 68 -40 62 -168 285 -288 499 -49
88 -96 169 -103 180 -20 29 -17 59 9 82 26 24 311 222 443 308 51 33 171 113
266 178 257 176 567 383 618 414 116 70 786 519 875 585 107 80 129 101 139
133 6 21 8 21 641 17 l635 -4 0 100 0 99 -512 5 c-282 3 -615 2 -739 -1 l-226
-6 4 110 c3 61 7 116 9 124 4 11 96 13 567 8 309 -3 637 -3 730 0 l167 6 0 89
0 88 -497 -1 c-274 -1 -601 -4 -728 -8 l-230 -6 2 -75 c1 -59 -1 -70 -9 -50
-6 16 -8 121 -5 290 5 266 22 440 52 531 l14 44 -4 -42 c-2 -22 -7 -54 -10
-70 -4 -23 -4 -24 4 -8 7 14 10 15 10 5 1 -8 26 30 57 85 31 55 75 127 99 160
161 227 250 424 302 665 28 131 25 497 -5 635 -35 159 -98 329 -175 475 -124
235 -130 249 -116 266 6 8 91 39 188 70 448 140 534 169 651 216 69 27 150 65
182 84 184 112 162 232 -53 291 -105 29 -496 20 -857 -21 l-114 -12 -10 25
c-5 14 -16 62 -24 106 -9 44 -31 127 -49 185 -50 153 -105 387 -105 442 l0 48
-44 0 c-23 0 -70 2 -102 3 -32 2 -111 2 -174 0z m532 -923 c2 -16 0 -32 -6
-34 -6 -2 3 -5 19 -6 30 -2 30 -2 5 -10 -14 -5 -88 -16 -165 -25 -78 -9 -172
-23 -210 -31 -39 -8 -117 -24 -175 -35 -58 -11 -150 -31 -205 -44 -55 -13
-151 -33 -214 -44 -482 -87 -1885 -468 -2481 -675 -581 -202 -606 -211 -980
-356 -74 -28 -157 -60 -185 -70 -94 -33 -250 -98 -410 -169 -87 -40 -166 -70
-174 -69 -37 8 269 185 460 267 63 27 166 72 229 101 146 65 506 209 720 287
539 198 1100 370 1795 551 246 65 798 194 905 212 36 6 124 24 195 40 298 68
699 134 836 139 33 1 37 -2 41 -29z m-2967 -1327 c135 -158 246 -242 480 -365
l120 -63 7 -70 c22 -236 19 -446 -8 -734 l-7 -64 23 23 c41 41 330 164 453
194 l49 11 -9 55 c-4 30 -8 114 -7 185 1 277 94 492 268 621 160 119 345 135
521 47 68 -35 192 -162 234 -242 47 -89 61 -150 61 -271 0 -122 -15 -193 -65
-297 -79 -169 -189 -276 -363 -355 -186 -84 -355 -66 -515 56 -45 34 -46 34
-37 10 16 -40 -11 -565 -35 -704 -26 -144 -84 -256 -182 -352 -106 -105 -178
-146 -423 -243 -80 -32 -174 -72 -210 -90 -36 -17 -99 -44 -140 -60 -41 -15
-169 -65 -285 -110 -663 -263 -712 -279 -810 -271 -91 7 -129 19 -190 58 -59
39 -85 76 -110 154 -17 56 -17 61 0 148 10 50 20 121 22 158 4 65 4 67 -33
108 -40 44 -172 130 -241 156 -29 11 -43 23 -43 35 0 15 39 63 128 157 6 7 12
18 12 24 0 14 -62 73 -137 130 -96 73 -97 66 27 196 105 110 150 177 150 224
0 26 -66 66 -302 186 -147 75 -198 107 -198 124 0 20 192 277 224 300 5 3 19
0 31 -8 20 -13 21 -12 17 21 -4 30 8 50 111 188 109 146 187 227 232 240 11 4
74 11 140 16 87 8 141 18 195 38 70 25 85 27 230 27 121 -1 177 -6 254 -22 54
-12 130 -22 170 -22 78 -1 74 -11 -12 -29 -30 -6 -101 -31 -158 -56 -179 -76
-233 -89 -593 -143 -73 -11 -116 -22 -119 -30 -7 -23 37 -59 101 -84 86 -32
292 -32 412 1 94 25 209 78 276 126 66 47 229 188 229 197 0 10 -116 64 -250
116 -101 40 -243 83 -341 105 l-47 11 57 34 c181 112 512 281 548 282 15 0 42
-24 88 -77z m690 -293 c22 -11 29 -17 15 -14 -38 10 -87 32 -70 33 8 0 33 -8
55 -19z m2153 -922 c-6 -18 -13 -27 -15 -21 -4 11 13 53 22 53 2 0 -1 -15 -7
-32z m-1125 -553 c-3 -9 -8 -14 -10 -11 -3 3 -2 9 2 15 9 16 15 13 8 -4z m-37
-104 c-19 -54 -22 -69 -11 -64 8 3 15 0 15 -6 0 -6 11 -11 25 -11 14 0 25 -4
25 -8 0 -16 37 -52 54 -52 9 0 16 -5 16 -11 0 -6 7 -8 16 -5 27 10 51 -12 74
-69 12 -30 28 -55 35 -55 13 0 65 -99 65 -124 0 -9 4 -16 10 -16 5 0 13 -12
16 -27 7 -26 13 -36 42 -68 6 -7 12 -18 12 -23 0 -6 7 -12 15 -16 8 -3 15 -14
15 -24 0 -10 11 -32 24 -47 14 -16 29 -47 35 -71 6 -25 18 -45 28 -49 10 -3
31 -35 47 -70 16 -36 34 -65 41 -65 15 0 25 -22 25 -56 0 -15 6 -24 15 -24 8
0 15 -7 15 -15 0 -21 40 -35 65 -22 13 7 20 7 23 -1 2 -6 10 -8 18 -5 7 3 11
10 8 15 -4 6 -1 8 7 6 8 -3 46 16 84 42 86 57 95 62 95 56 0 -12 -211 -145
-224 -140 -8 3 -17 1 -21 -5 -4 -7 1 -8 12 -4 36 12 -5 -17 -237 -170 -129
-85 -249 -166 -265 -180 -69 -57 -913 -613 -920 -605 -7 7 453 1347 513 1493
13 33 38 101 54 150 67 203 149 427 156 421 2 -2 -8 -36 -22 -75z m-905 -3218
c12 -21 49 -80 82 -131 l59 -92 -32 -53 c-27 -45 -130 -188 -265 -368 -19 -25
-41 -58 -50 -75 -15 -29 -15 -29 -15 36 0 36 4 101 10 145 5 44 14 138 20 209
8 89 17 140 30 165 19 38 129 201 135 201 2 0 14 -17 26 -37z"/>
<path d="M5435 7199 c-4 -6 -5 -12 -2 -15 2 -3 7 2 10 11 7 17 1 20 -8 4z"/>
<path d="M7611 7114 c-115 -42 -223 -155 -266 -279 -24 -69 -31 -244 -15 -369
18 -148 39 -190 113 -228 85 -43 228 -31 348 29 337 168 394 680 92 824 -82
39 -201 49 -272 23z"/>
<path d="M7700 5425 c0 -14 2 -25 4 -25 2 0 6 11 8 25 3 14 1 25 -3 25 -5 0
-9 -11 -9 -25z"/>
<path d="M1960 8199 c-44 -40 -45 -40 -101 -34 -66 8 -58 12 -331 -142 -104
-58 -188 -111 -188 -117 0 -6 21 -38 45 -70 25 -33 45 -65 45 -71 0 -29 -213
-205 -327 -271 -18 -10 -33 -23 -33 -29 0 -5 15 -35 33 -65 18 -30 71 -125
116 -210 113 -209 189 -348 217 -392 26 -40 189 -331 269 -478 29 -52 85 -149
125 -215 40 -66 82 -139 92 -162 25 -56 34 -191 19 -265 -34 -162 -125 -250
-474 -453 -75 -44 -137 -86 -137 -93 0 -13 41 -86 170 -307 42 -71 101 -175
130 -230 29 -55 82 -151 118 -214 101 -178 145 -292 70 -181 -25 36 -73 106
-109 157 -35 51 -76 112 -92 136 -36 59 -81 80 -179 85 -66 4 -84 1 -130 -21
-60 -28 -128 -92 -166 -156 -20 -34 -26 -59 -27 -115 l-3 -71 -48 -6 c-66 -9
-100 -24 -159 -68 -85 -64 -133 -191 -107 -283 l10 -36 -42 -4 c-90 -11 -188
-86 -229 -176 -34 -75 -30 -187 10 -279 l31 -72 -22 -19 c-30 -27 -104 -76
-154 -101 -23 -12 -42 -27 -42 -34 0 -7 43 -80 96 -162 109 -169 397 -669 455
-790 22 -43 43 -83 49 -89 6 -6 30 3 67 26 70 43 94 51 121 41 31 -12 121
-131 193 -256 35 -61 91 -148 124 -193 84 -112 212 -310 279 -431 33 -59 64
-103 72 -103 18 0 143 83 221 148 32 26 85 68 117 92 70 51 69 51 112 -69 15
-42 51 -136 81 -210 30 -74 55 -149 56 -166 l2 -32 30 23 c17 12 59 39 95 60
36 20 137 83 225 139 88 56 221 139 295 185 139 86 469 298 483 310 4 4 -8 33
-28 65 -40 67 -109 237 -125 310 -12 52 -9 85 20 240 42 223 52 357 42 524
l-7 104 30 29 c16 16 55 41 85 56 47 23 67 27 140 27 152 -1 250 -65 396 -259
43 -58 82 -106 85 -106 9 0 19 39 19 75 0 17 -14 100 -31 185 -41 206 -39 306
9 401 56 112 55 111 163 111 65 -1 114 -7 159 -21 95 -30 132 -28 176 11 34
30 36 35 32 79 -8 82 -88 164 -200 206 -27 9 -48 20 -48 24 0 14 84 165 131
235 l48 72 -51 83 c-94 154 -158 263 -158 270 0 12 101 89 116 89 20 0 18 5
-25 68 -21 32 -54 85 -73 119 l-34 62 -65 -39 c-35 -22 -67 -39 -70 -40 -11 0
-243 376 -422 685 -38 66 -113 188 -167 270 -78 121 -101 150 -119 150 -19 0
-36 24 -100 140 -42 77 -122 212 -177 300 -56 88 -215 351 -354 585 -139 234
-286 477 -325 540 -40 63 -101 162 -135 220 -35 58 -87 141 -117 185 -29 44
-53 85 -53 91 0 7 31 40 69 73 l70 62 -41 65 c-60 96 -78 107 -160 101 -37 -3
-77 -11 -90 -18 -12 -6 -23 -8 -25 -3 -2 5 -21 42 -43 82 -27 47 -47 72 -58
72 -9 -1 -37 -19 -62 -41z m125 -321 c156 -267 282 -475 378 -625 26 -41 105
-172 176 -291 71 -119 193 -323 271 -452 78 -129 144 -239 147 -245 5 -16 -74
-98 -86 -90 -6 3 -11 3 -11 -2 1 -22 229 -412 281 -479 21 -28 39 -55 39 -61
0 -5 -13 -22 -30 -38 -43 -41 -22 -68 -255 335 -202 350 -452 773 -526 891
-26 41 -102 172 -170 290 -67 118 -130 226 -140 240 -10 14 -59 101 -110 194
-51 94 -112 201 -135 240 -24 38 -44 75 -44 82 0 7 -2 13 -5 13 -19 0 -325
-307 -325 -325 0 -7 20 -40 44 -73 24 -33 71 -106 103 -163 33 -57 153 -264
268 -459 259 -443 317 -543 467 -805 66 -115 145 -253 176 -305 31 -52 90
-156 133 -230 144 -254 191 -335 218 -380 26 -42 101 -169 271 -460 37 -63
134 -232 215 -375 244 -429 265 -465 343 -595 41 -69 97 -160 125 -203 l50
-78 -33 -34 -34 -35 -44 78 c-24 42 -78 133 -120 202 -156 258 -313 526 -368
625 -45 83 -238 419 -281 490 -16 28 -81 140 -143 250 -62 110 -146 254 -185
320 -87 145 -206 347 -345 590 -108 187 -151 263 -365 630 -71 121 -159 274
-195 340 -37 66 -94 163 -127 215 -33 52 -95 156 -139 230 -153 264 -147 250
-111 285 12 12 46 49 74 83 42 48 229 201 347 282 11 8 37 27 56 42 19 15 37
28 40 28 3 0 50 -77 105 -172z m1221 -1956 c78 -136 114 -203 114 -212 0 -14
-94 -60 -106 -52 -15 11 -46 59 -93 144 l-41 76 40 43 c22 24 40 47 40 52 0
17 19 -4 46 -51z m245 -394 c18 -35 48 -88 69 -118 20 -30 72 -116 116 -190
144 -243 180 -303 279 -465 238 -391 415 -689 415 -700 0 -12 -38 -51 -43 -44
-2 2 -42 83 -90 179 -48 96 -117 220 -154 276 -222 330 -344 519 -385 594 -43
80 -241 405 -258 424 -5 4 -46 -13 -93 -38 -105 -58 -187 -86 -246 -86 -40 0
-43 2 -31 15 8 8 67 42 130 76 63 34 140 78 170 99 30 21 63 39 72 39 12 1 28
-20 49 -61z m-1151 32 c28 -28 25 -64 -6 -89 -15 -12 -33 -21 -40 -21 -15 0
-54 47 -54 65 0 21 41 65 61 65 10 0 28 -9 39 -20z m181 -293 c42 -67 91 -149
109 -182 18 -33 55 -97 82 -141 26 -45 48 -87 48 -93 0 -6 -18 -20 -40 -31
l-39 -20 -24 33 c-14 17 -46 70 -72 117 -26 47 -75 130 -108 185 -33 55 -71
119 -85 143 l-25 43 34 35 c18 19 35 34 38 34 4 0 40 -55 82 -123z m-425 -26
c81 -38 187 -141 229 -223 34 -66 34 -67 -58 -135 -66 -48 -164 -83 -236 -83
-25 0 -78 7 -117 16 -84 20 -104 15 -104 -23 0 -88 156 -203 294 -218 84 -9
166 8 264 55 46 22 85 40 87 40 7 0 -18 -86 -35 -121 -29 -56 -73 -102 -178
-190 -96 -79 -195 -139 -231 -139 -11 0 -30 10 -41 22 -29 31 -201 330 -316
548 -52 100 -105 198 -119 220 -14 22 -26 43 -27 49 -6 21 190 146 312 198 78
34 183 28 276 -16z m1345 -369 c183 -297 205 -337 255 -485 34 -98 43 -115
113 -196 42 -49 96 -124 121 -166 25 -42 87 -135 138 -207 50 -71 92 -134 92
-139 0 -17 -30 -22 -46 -8 -27 22 -178 243 -224 328 -25 46 -76 131 -114 189
-38 59 -87 143 -109 187 -37 74 -69 134 -248 450 -78 139 -88 166 -62 159 10
-3 48 -53 84 -112z m-203 16 c71 -96 166 -255 367 -613 186 -332 368 -640 395
-670 16 -17 17 -23 6 -38 -12 -16 -16 -14 -50 23 -62 69 -239 354 -418 675
-191 341 -292 518 -330 579 -24 38 -51 84 -61 103 -17 32 -17 33 3 33 14 0 41
-29 88 -92z m-241 -449 c84 -140 153 -261 153 -270 0 -23 -70 -51 -88 -36 -7
6 -38 53 -69 106 -31 53 -89 150 -128 216 -114 191 -109 174 -72 213 17 18 36
31 41 29 6 -2 79 -118 163 -258z m904 74 c64 -89 129 -197 129 -215 0 -20 -54
-58 -82 -58 -37 0 -133 164 -144 245 -13 88 42 103 97 28z m409 -13 c0 -5 -4
-10 -10 -10 -5 0 -10 5 -10 10 0 6 5 10 10 10 6 0 10 -4 10 -10z m-2897 -53
c59 -26 489 -694 502 -780 8 -54 -16 -117 -58 -153 -28 -24 -37 -26 -98 -22
-78 4 -98 18 -151 102 -18 28 -80 124 -138 213 -291 446 -288 441 -276 505 8
45 61 106 110 129 47 22 70 23 109 6z m1322 -32 c9 -25 7 -30 -19 -49 -117
-85 -324 -251 -386 -310 -105 -99 -282 -246 -298 -246 -7 0 -24 11 -38 25 -19
19 -23 29 -15 43 21 39 715 576 735 569 6 -2 15 -16 21 -32z m129 -217 c32
-46 89 -123 127 -173 37 -49 90 -127 116 -173 88 -151 195 -316 250 -385 48
-59 53 -70 41 -85 -53 -68 -112 -138 -119 -140 -5 -2 -11 9 -15 24 -6 22 0 42
24 85 l31 56 -20 19 c-11 10 -39 50 -63 89 -23 38 -57 95 -76 125 -46 77 -72
131 -66 138 3 3 6 0 6 -6 0 -22 16 -12 18 11 1 15 -10 34 -28 52 -17 16 -30
34 -30 40 0 6 -6 17 -12 24 -7 6 -13 15 -14 19 0 4 -6 18 -11 32 -10 22 -11
20 -8 -21 1 -25 8 -56 14 -70 34 -66 -42 45 -86 126 -60 113 -58 106 -36 98
17 -6 17 -6 -1 13 -11 10 -24 19 -29 19 -18 0 -88 110 -84 132 2 12 -1 24 -7
27 -6 2 -4 5 5 5 9 1 41 -35 73 -81z m-1755 -117 c23 -23 108 -149 223 -331
238 -378 253 -406 252 -471 -1 -85 -59 -144 -144 -144 -63 0 -94 21 -141 96
-24 39 -63 96 -85 128 -23 32 -77 114 -119 182 -43 68 -108 170 -146 225 -90
136 -96 183 -37 266 42 60 158 88 197 49z m1478 -141 c70 -62 130 -104 335
-235 44 -28 69 -52 82 -78 41 -85 201 -632 217 -740 15 -109 17 -396 3 -421
-10 -16 -14 -10 -31 45 -12 35 -28 84 -36 109 -9 25 -23 74 -33 110 -9 36 -32
88 -50 115 -51 78 -149 399 -131 431 7 12 6 15 -2 10 -6 -4 -17 8 -27 31 -9
21 -20 45 -25 53 -5 8 -14 26 -19 40 -9 22 -22 27 -102 43 -156 30 -268 104
-323 213 -52 103 -45 240 18 311 16 18 33 33 38 33 4 0 43 -31 86 -70z m-1780
-252 c37 -33 255 -355 294 -434 34 -72 3 -153 -71 -184 -36 -15 -154 -9 -189
9 -48 26 -261 390 -261 446 0 59 50 136 115 176 43 27 69 24 112 -13z m3595
-118 c20 -6 47 -19 60 -30 l23 -19 -22 -1 c-24 0 -164 28 -171 35 -2 2 -1 8 3
14 8 14 59 14 107 1z m-3796 -472 c57 -116 389 -692 431 -750 l34 -47 -43 -22
c-23 -12 -43 -18 -45 -13 -2 5 -49 87 -106 181 -56 94 -118 200 -137 234 -47
84 -145 247 -204 337 -26 40 -45 76 -42 79 6 6 79 52 83 53 2 0 14 -24 29 -52z
m1676 -104 c57 -29 84 -62 103 -127 38 -129 -4 -280 -105 -371 -55 -49 -76
-56 -180 -56 -149 0 -252 56 -310 169 -47 94 -47 229 1 308 35 56 165 99 242
79 30 -7 37 -36 44 -176 4 -78 2 -93 -9 -82 -9 9 -13 42 -13 105 0 89 -1 92
-24 95 -34 5 -110 -16 -144 -40 -37 -26 -67 -90 -67 -143 0 -103 76 -177 236
-229 49 -16 53 -16 107 4 60 23 119 78 143 136 21 51 18 182 -5 220 -38 62
-132 99 -177 69 -31 -20 -47 -9 -42 26 7 52 110 58 200 13z m-1351 -75 c19
-10 153 -206 214 -314 15 -27 45 -77 65 -110 20 -33 83 -139 140 -235 56 -96
135 -227 175 -290 39 -63 87 -142 105 -175 63 -110 180 -285 192 -286 7 -1 17
-1 21 0 5 1 6 -3 2 -9 -3 -5 -1 -10 5 -10 6 0 9 -4 6 -9 -4 -5 3 -7 14 -4 11
3 20 1 20 -4 0 -17 -69 -76 -83 -70 -8 3 -27 27 -42 54 -30 52 -137 216 -245
378 -36 55 -91 145 -120 200 -29 55 -75 132 -101 170 -47 70 -270 442 -339
565 -20 36 -48 83 -63 105 -15 22 -27 43 -27 47 0 12 38 10 61 -3z m1774 -309
c-4 -6 8 -10 27 -11 18 0 27 -3 21 -6 -7 -2 -13 -9 -13 -14 0 -6 5 -7 10 -4
16 10 13 -1 -48 -133 -78 -170 -146 -285 -150 -254 -2 12 -8 22 -13 22 -5 0
-9 6 -9 14 0 7 -9 16 -20 19 -11 3 -20 1 -20 -5 0 -11 -25 -38 -36 -38 -4 0 0
8 8 18 9 9 30 43 48 75 18 32 39 61 47 64 7 3 12 10 11 17 -1 6 8 33 20 60 20
43 24 47 39 35 15 -12 16 -12 8 1 -16 26 -14 40 6 51 11 5 17 14 14 19 -7 11
34 80 47 80 5 0 6 -4 3 -10z m-252 -461 c-6 -40 -5 -41 23 -37 16 2 33 12 39
23 6 11 17 21 24 23 12 3 12 0 0 -15 -8 -10 -18 -21 -22 -24 -5 -3 -8 -10 -6
-14 1 -4 -43 -76 -99 -160 -152 -228 -317 -385 -373 -354 -22 11 -71 -8 -63
-25 3 -6 -2 -2 -10 8 -9 11 -16 15 -16 9 0 -6 -7 -13 -15 -17 -29 -11 -15 3
59 59 182 137 243 212 423 517 15 26 31 48 35 48 3 0 4 -18 1 -41z m-533 -664
c-7 -9 -15 -13 -17 -11 -6 6 20 36 26 30 2 -2 -2 -10 -9 -19z"/>
<path d="M3020 3285 c1 -6 7 -21 16 -35 l15 -25 -7 25 c-7 26 -24 52 -24 35z"/>
<path d="M2710 2495 c0 -8 5 -15 10 -15 6 0 10 7 10 15 0 8 -4 15 -10 15 -5 0
-10 -7 -10 -15z"/>
<path d="M2680 2440 c0 -6 -11 -20 -24 -31 -14 -12 -22 -28 -19 -35 8 -21 23
-17 23 6 0 11 7 20 15 20 9 0 15 9 15 25 0 14 -2 25 -5 25 -3 0 -5 -5 -5 -10z"/>
<path d="M2706 2443 c-11 -11 -6 -21 14 -26 12 -3 20 0 20 8 0 14 -25 27 -34
18z"/>
<path d="M2690 2340 c0 -11 2 -20 4 -20 2 0 6 9 9 20 3 11 1 20 -4 20 -5 0 -9
-9 -9 -20z"/>
<path d="M8519 4263 c-13 -16 -12 -17 4 -4 16 13 21 21 13 21 -2 0 -10 -8 -17
-17z"/>
<path d="M9499 3703 c-24 -26 -37 -43 -29 -39 8 4 6 0 -4 -8 -19 -15 -18 -16
17 -16 26 0 37 4 37 15 0 8 5 15 10 15 6 0 10 5 10 11 0 5 -4 8 -9 5 -19 -12
-18 20 2 42 39 42 11 22 -34 -25z"/>
<path d="M9560 3616 c-73 -55 -348 -330 -635 -636 -38 -41 -126 -133 -195
-205 -69 -71 -213 -224 -320 -339 -107 -115 -212 -221 -233 -235 -172 -115
-263 -208 -228 -230 16 -10 138 -22 247 -25 l70 -1 109 75 c302 205 695 468
862 575 103 66 273 176 378 245 104 69 250 164 323 210 l132 84 -34 35 c-18
20 -76 95 -127 166 -110 154 -250 339 -258 343 -3 1 -44 -27 -91 -62z"/>
<path d="M5042 3188 c-5 -7 -13 -30 -17 -50 -6 -34 -11 -38 -36 -38 -47 0 -91
-23 -156 -84 -33 -31 -66 -56 -72 -56 -6 0 -11 -5 -11 -11 0 -6 -20 -29 -44
-50 -43 -38 -69 -92 -90 -189 -5 -23 -9 -25 -46 -22 -53 5 -52 -13 2 -24 39
-8 42 -12 54 -56 25 -98 95 -198 139 -198 19 0 19 -14 0 -30 -22 -18 -18 -30
8 -30 17 0 62 37 153 128 l129 127 114 -117 114 -117 -74 -36 c-63 -30 -84
-35 -144 -35 -67 0 -185 29 -209 51 -14 13 -36 11 -36 -2 0 -30 87 -80 154
-88 l50 -6 8 -44 c7 -44 22 -70 33 -59 3 3 8 28 12 55 l6 51 42 5 c49 5 123
38 165 74 22 18 35 22 57 17 l28 -7 -19 22 c-19 21 -19 22 2 37 63 44 121 137
136 217 4 22 13 37 21 37 17 0 19 11 6 25 -5 6 -16 35 -26 65 -26 80 -42 108
-88 151 -33 30 -39 41 -29 51 6 6 12 18 12 25 0 10 -5 10 -25 1 -22 -10 -29
-6 -71 35 -49 48 -130 87 -183 87 -26 0 -29 4 -34 41 -6 48 -19 66 -35 47z
m139 -170 c34 -18 71 -45 81 -59 l19 -25 -117 -117 -118 -116 -106 111 c-58
61 -106 114 -108 117 -1 4 14 26 33 48 43 50 97 71 187 72 56 1 76 -4 129 -31z
m-363 -160 c22 -29 72 -86 111 -127 39 -40 71 -78 71 -85 0 -6 -45 -56 -101
-111 l-100 -100 -45 50 c-24 27 -49 66 -54 85 -15 54 -12 176 6 218 16 39 63
122 68 122 2 0 22 -24 44 -52z m555 -10 c47 -73 61 -119 54 -191 -6 -71 -55
-177 -93 -202 l-27 -17 -103 103 c-63 63 -100 107 -96 115 4 6 52 60 107 119
55 59 102 111 103 116 7 19 21 8 55 -43z"/>
<path d="M3480 1447 c-48 -24 -46 -30 116 -279 73 -111 100 -134 141 -121 46
16 41 45 -28 151 -142 221 -173 262 -193 262 -6 0 -22 -6 -36 -13z"/>
<path d="M3011 1147 c-53 -27 -50 -36 49 -183 100 -149 169 -242 193 -262 20
-17 87 14 87 39 0 10 -28 59 -62 109 -35 51 -85 127 -113 169 -98 151 -102
155 -154 128z"/>
</g>
</svg>
